# xmcd
#
# Track frame offsets:
#	150
#	12157
#	29653
#	44594
#	57602
#	72950
#	87143
#	107682
#	124461
#	134164
#	147130
#	165005
#	186183
#	199032
#	214723
#	231724
#
# Disc length: 3332 seconds
#
# Revision: 1
# Processed by: cddbd v1.5.2PL0 Copyright (c) Steve Scherf et al.
# Submitted via: audiograbber 1.83.01
#
DISCID=f30d0210
DTITLE=Elvis Presley - Way Down In The Jungle Room CD1
DYEAR=2016
DGENRE=Country
TTITLE0=Way Down
TTITLE1=She Thinks I Still Care
TTITLE2=Bitter They Are, Harder They Fall
TTITLE3=Pledging My Love
TTITLE4=For The Heart
TTITLE5=Love Coming Down
TTITLE6=He'll Have To Go
TTITLE7=Blue Eyes Crying In The Rain
TTITLE8=Hurt
TTITLE9=Never Again
TTITLE10=Danny Boy
TTITLE11=Solitaire
TTITLE12=Moody Blue
TTITLE13=It's Easy For You
TTITLE14=I'll Never Fall In Love Again
TTITLE15=The Last Farewell
EXTD=
EXTT0=
EXTT1=
EXTT2=
EXTT3=
EXTT4=
EXTT5=
EXTT6=
EXTT7=
EXTT8=
EXTT9=
EXTT10=
EXTT11=
EXTT12=
EXTT13=
EXTT14=
EXTT15=
PLAYORDER=
